<?xml version="1.0" encoding="UTF-8" standalone="no"?>
<!DOCTYPE svg PUBLIC "-//W3C//DTD SVG 1.1//EN"
 "http://www.w3.org/Graphics/SVG/1.1/DTD/svg11.dtd">
<!-- Generated by graphviz version 2.40.1 (20161225.0304)
 -->
<!-- Title: %3 Pages: 1 -->
<svg width="820pt" height="404pt"
 viewBox="0.00 0.00 819.99 404.00" xmlns="http://www.w3.org/2000/svg" xmlns:xlink="http://www.w3.org/1999/xlink">
<g id="graph0" class="graph" transform="scale(1 1) rotate(0) translate(4 400)">
<title>%3</title>
<polygon fill="#ffffff" stroke="transparent" points="-4,4 -4,-400 815.9942,-400 815.9942,4 -4,4"/>
<!-- 00000 -->
<g id="node1" class="node">
<title>00000</title>
<ellipse fill="#ff0000" stroke="#ff0000" cx="364.4971" cy="-378" rx="32.4942" ry="18"/>
<text text-anchor="middle" x="364.4971" y="-374.3" font-family="Times,serif" font-size="14.00" fill="#ffffff">00000</text>
</g>
<!-- 00001 -->
<g id="node2" class="node">
<title>00001</title>
<ellipse fill="#aa0000" stroke="#aa0000" cx="198.4971" cy="-306" rx="32.4942" ry="18"/>
<text text-anchor="middle" x="198.4971" y="-302.3" font-family="Times,serif" font-size="14.00" fill="#ffffff">00001</text>
</g>
<!-- 00000&#45;&#45;00001 -->
<g id="edge5" class="edge">
<title>00000&#45;&#45;00001</title>
<path fill="none" stroke="#000000" d="M338.5596,-366.75C307.3738,-353.2236 255.3569,-330.6621 224.2525,-317.171"/>
</g>
<!-- 00010 -->
<g id="node3" class="node">
<title>00010</title>
<ellipse fill="#aa0000" stroke="#aa0000" cx="281.4971" cy="-306" rx="32.4942" ry="18"/>
<text text-anchor="middle" x="281.4971" y="-302.3" font-family="Times,serif" font-size="14.00" fill="#ffffff">00010</text>
</g>
<!-- 00000&#45;&#45;00010 -->
<g id="edge4" class="edge">
<title>00000&#45;&#45;00010</title>
<path fill="none" stroke="#000000" d="M346.895,-362.7307C332.8096,-350.512 313.1526,-333.4602 299.0739,-321.2473"/>
</g>
<!-- 00100 -->
<g id="node5" class="node">
<title>00100</title>
<ellipse fill="#aa0000" stroke="#aa0000" cx="364.4971" cy="-306" rx="32.4942" ry="18"/>
<text text-anchor="middle" x="364.4971" y="-302.3" font-family="Times,serif" font-size="14.00" fill="#ffffff">00100</text>
</g>
<!-- 00000&#45;&#45;00100 -->
<g id="edge3" class="edge">
<title>00000&#45;&#45;00100</title>
<path fill="none" stroke="#000000" d="M364.4971,-359.8314C364.4971,-349 364.4971,-335.2876 364.4971,-324.4133"/>
</g>
<!-- 01000 -->
<g id="node9" class="node">
<title>01000</title>
<ellipse fill="#aa0000" stroke="#aa0000" cx="447.4971" cy="-306" rx="32.4942" ry="18"/>
<text text-anchor="middle" x="447.4971" y="-302.3" font-family="Times,serif" font-size="14.00" fill="#ffffff">01000</text>
</g>
<!-- 00000&#45;&#45;01000 -->
<g id="edge2" class="edge">
<title>00000&#45;&#45;01000</title>
<path fill="none" stroke="#000000" d="M382.0993,-362.7307C396.1847,-350.512 415.8416,-333.4602 429.9203,-321.2473"/>
</g>
<!-- 10000 -->
<g id="node17" class="node">
<title>10000</title>
<ellipse fill="#aa0000" stroke="#aa0000" cx="613.4971" cy="-306" rx="32.4942" ry="18"/>
<text text-anchor="middle" x="613.4971" y="-302.3" font-family="Times,serif" font-size="14.00" fill="#ffffff">10000</text>
</g>
<!-- 00000&#45;&#45;10000 -->
<g id="edge1" class="edge">
<title>00000&#45;&#45;10000</title>
<path fill="none" stroke="#000000" d="M393.5479,-369.5998C441.5276,-355.7261 536.7735,-328.1851 584.6314,-314.3467"/>
</g>
<!-- 00011 -->
<g id="node4" class="node">
<title>00011</title>
<ellipse fill="#550000" stroke="#550000" cx="32.4971" cy="-234" rx="32.4942" ry="18"/>
<text text-anchor="middle" x="32.4971" y="-230.3" font-family="Times,serif" font-size="14.00" fill="#ffffff">00011</text>
</g>
<!-- 00001&#45;&#45;00011 -->
<g id="edge9" class="edge">
<title>00001&#45;&#45;00011</title>
<path fill="none" stroke="#000000" d="M172.5596,-294.75C141.3738,-281.2236 89.3569,-258.6621 58.2525,-245.171"/>
</g>
<!-- 00101 -->
<g id="node6" class="node">
<title>00101</title>
<ellipse fill="#550000" stroke="#550000" cx="115.4971" cy="-234" rx="32.4942" ry="18"/>
<text text-anchor="middle" x="115.4971" y="-230.3" font-family="Times,serif" font-size="14.00" fill="#ffffff">00101</text>
</g>
<!-- 00001&#45;&#45;00101 -->
<g id="edge8" class="edge">
<title>00001&#45;&#45;00101</title>
<path fill="none" stroke="#000000" d="M180.895,-290.7307C166.8096,-278.512 147.1526,-261.4602 133.0739,-249.2473"/>
</g>
<!-- 01001 -->
<g id="node10" class="node">
<title>01001</title>
<ellipse fill="#550000" stroke="#550000" cx="198.4971" cy="-234" rx="32.4942" ry="18"/>
<text text-anchor="middle" x="198.4971" y="-230.3" font-family="Times,serif" font-size="14.00" fill="#ffffff">01001</text>
</g>
<!-- 00001&#45;&#45;01001 -->
<g id="edge7" class="edge">
<title>00001&#45;&#45;01001</title>
<path fill="none" stroke="#000000" d="M198.4971,-287.8314C198.4971,-277 198.4971,-263.2876 198.4971,-252.4133"/>
</g>
<!-- 10001 -->
<g id="node18" class="node">
<title>10001</title>
<ellipse fill="#550000" stroke="#550000" cx="530.4971" cy="-234" rx="32.4942" ry="18"/>
<text text-anchor="middle" x="530.4971" y="-230.3" font-family="Times,serif" font-size="14.00" fill="#ffffff">10001</text>
</g>
<!-- 00001&#45;&#45;10001 -->
<g id="edge6" class="edge">
<title>00001&#45;&#45;10001</title>
<path fill="none" stroke="#000000" d="M223.4297,-294.0556C228.9532,-291.7668 234.8464,-289.5914 240.4971,-288 347.704,-257.8069 381.2902,-282.1931 488.4971,-252 494.1478,-250.4086 500.0411,-248.2332 505.5645,-245.9444"/>
</g>
<!-- 00010&#45;&#45;00011 -->
<g id="edge13" class="edge">
<title>00010&#45;&#45;00011</title>
<path fill="none" stroke="#000000" d="M256.4739,-294.3568C250.9561,-292.0492 245.088,-289.79 239.4971,-288 168.013,-265.1132 145.9812,-274.8868 74.4971,-252 68.9062,-250.21 63.0381,-247.9508 57.5203,-245.6432"/>
</g>
<!-- 00110 -->
<g id="node7" class="node">
<title>00110</title>
<ellipse fill="#550000" stroke="#550000" cx="281.4971" cy="-234" rx="32.4942" ry="18"/>
<text text-anchor="middle" x="281.4971" y="-230.3" font-family="Times,serif" font-size="14.00" fill="#ffffff">00110</text>
</g>
<!-- 00010&#45;&#45;00110 -->
<g id="edge12" class="edge">
<title>00010&#45;&#45;00110</title>
<path fill="none" stroke="#000000" d="M281.4971,-287.8314C281.4971,-277 281.4971,-263.2876 281.4971,-252.4133"/>
</g>
<!-- 01010 -->
<g id="node11" class="node">
<title>01010</title>
<ellipse fill="#550000" stroke="#550000" cx="364.4971" cy="-234" rx="32.4942" ry="18"/>
<text text-anchor="middle" x="364.4971" y="-230.3" font-family="Times,serif" font-size="14.00" fill="#ffffff">01010</text>
</g>
<!-- 00010&#45;&#45;01010 -->
<g id="edge11" class="edge">
<title>00010&#45;&#45;01010</title>
<path fill="none" stroke="#000000" d="M299.0993,-290.7307C313.1847,-278.512 332.8416,-261.4602 346.9203,-249.2473"/>
</g>
<!-- 10010 -->
<g id="node19" class="node">
<title>10010</title>
<ellipse fill="#550000" stroke="#550000" cx="613.4971" cy="-234" rx="32.4942" ry="18"/>
<text text-anchor="middle" x="613.4971" y="-230.3" font-family="Times,serif" font-size="14.00" fill="#ffffff">10010</text>
</g>
<!-- 00010&#45;&#45;10010 -->
<g id="edge10" class="edge">
<title>00010&#45;&#45;10010</title>
<path fill="none" stroke="#000000" d="M306.4297,-294.0556C311.9532,-291.7668 317.8464,-289.5914 323.4971,-288 430.704,-257.8069 464.2902,-282.1931 571.4971,-252 577.1478,-250.4086 583.0411,-248.2332 588.5645,-245.9444"/>
</g>
<!-- 00111 -->
<g id="node8" class="node">
<title>00111</title>
<ellipse fill="#000000" stroke="#000000" cx="32.4971" cy="-162" rx="32.4942" ry="18"/>
<text text-anchor="middle" x="32.4971" y="-158.3" font-family="Times,serif" font-size="14.00" fill="#ffffff">00111</text>
</g>
<!-- 00011&#45;&#45;00111 -->
<g id="edge16" class="edge">
<title>00011&#45;&#45;00111</title>
<path fill="none" stroke="#000000" d="M32.4971,-215.8314C32.4971,-205 32.4971,-191.2876 32.4971,-180.4133"/>
</g>
<!-- 01011 -->
<g id="node12" class="node">
<title>01011</title>
<ellipse fill="#000000" stroke="#000000" cx="115.4971" cy="-162" rx="32.4942" ry="18"/>
<text text-anchor="middle" x="115.4971" y="-158.3" font-family="Times,serif" font-size="14.00" fill="#ffffff">01011</text>
</g>
<!-- 00011&#45;&#45;01011 -->
<g id="edge15" class="edge">
<title>00011&#45;&#45;01011</title>
<path fill="none" stroke="#000000" d="M50.0993,-218.7307C64.1847,-206.512 83.8416,-189.4602 97.9203,-177.2473"/>
</g>
<!-- 10011 -->
<g id="node20" class="node">
<title>10011</title>
<ellipse fill="#000000" stroke="#000000" cx="364.4971" cy="-162" rx="32.4942" ry="18"/>
<text text-anchor="middle" x="364.4971" y="-158.3" font-family="Times,serif" font-size="14.00" fill="#ffffff">10011</text>
</g>
<!-- 00011&#45;&#45;10011 -->
<g id="edge14" class="edge">
<title>00011&#45;&#45;10011</title>
<path fill="none" stroke="#000000" d="M57.4297,-222.0556C62.9532,-219.7668 68.8464,-217.5914 74.4971,-216 181.704,-185.8069 215.2902,-210.1931 322.4971,-180 328.1478,-178.4086 334.0411,-176.2332 339.5645,-173.9444"/>
</g>
<!-- 00100&#45;&#45;00101 -->
<g id="edge20" class="edge">
<title>00100&#45;&#45;00101</title>
<path fill="none" stroke="#000000" d="M339.4739,-294.3568C333.9561,-292.0492 328.088,-289.79 322.4971,-288 251.013,-265.1132 228.9812,-274.8868 157.4971,-252 151.9062,-250.21 146.0381,-247.9508 140.5203,-245.6432"/>
</g>
<!-- 00100&#45;&#45;00110 -->
<g id="edge19" class="edge">
<title>00100&#45;&#45;00110</title>
<path fill="none" stroke="#000000" d="M346.895,-290.7307C332.8096,-278.512 313.1526,-261.4602 299.0739,-249.2473"/>
</g>
<!-- 01100 -->
<g id="node13" class="node">
<title>01100</title>
<ellipse fill="#550000" stroke="#550000" cx="447.4971" cy="-234" rx="32.4942" ry="18"/>
<text text-anchor="middle" x="447.4971" y="-230.3" font-family="Times,serif" font-size="14.00" fill="#ffffff">01100</text>
</g>
<!-- 00100&#45;&#45;01100 -->
<g id="edge18" class="edge">
<title>00100&#45;&#45;01100</title>
<path fill="none" stroke="#000000" d="M382.0993,-290.7307C396.1847,-278.512 415.8416,-261.4602 429.9203,-249.2473"/>
</g>
<!-- 10100 -->
<g id="node21" class="node">
<title>10100</title>
<ellipse fill="#550000" stroke="#550000" cx="696.4971" cy="-234" rx="32.4942" ry="18"/>
<text text-anchor="middle" x="696.4971" y="-230.3" font-family="Times,serif" font-size="14.00" fill="#ffffff">10100</text>
</g>
<!-- 00100&#45;&#45;10100 -->
<g id="edge17" class="edge">
<title>00100&#45;&#45;10100</title>
<path fill="none" stroke="#000000" d="M389.4297,-294.0556C394.9532,-291.7668 400.8464,-289.5914 406.4971,-288 513.704,-257.8069 547.2902,-282.1931 654.4971,-252 660.1478,-250.4086 666.0411,-248.2332 671.5645,-245.9444"/>
</g>
<!-- 00101&#45;&#45;00111 -->
<g id="edge23" class="edge">
<title>00101&#45;&#45;00111</title>
<path fill="none" stroke="#000000" d="M97.895,-218.7307C83.8096,-206.512 64.1526,-189.4602 50.0739,-177.2473"/>
</g>
<!-- 01101 -->
<g id="node14" class="node">
<title>01101</title>
<ellipse fill="#000000" stroke="#000000" cx="198.4971" cy="-162" rx="32.4942" ry="18"/>
<text text-anchor="middle" x="198.4971" y="-158.3" font-family="Times,serif" font-size="14.00" fill="#ffffff">01101</text>
</g>
<!-- 00101&#45;&#45;01101 -->
<g id="edge22" class="edge">
<title>00101&#45;&#45;01101</title>
<path fill="none" stroke="#000000" d="M133.0993,-218.7307C147.1847,-206.512 166.8416,-189.4602 180.9203,-177.2473"/>
</g>
<!-- 10101 -->
<g id="node22" class="node">
<title>10101</title>
<ellipse fill="#000000" stroke="#000000" cx="447.4971" cy="-162" rx="32.4942" ry="18"/>
<text text-anchor="middle" x="447.4971" y="-158.3" font-family="Times,serif" font-size="14.00" fill="#ffffff">10101</text>
</g>
<!-- 00101&#45;&#45;10101 -->
<g id="edge21" class="edge">
<title>00101&#45;&#45;10101</title>
<path fill="none" stroke="#000000" d="M140.4297,-222.0556C145.9532,-219.7668 151.8464,-217.5914 157.4971,-216 264.704,-185.8069 298.2902,-210.1931 405.4971,-180 411.1478,-178.4086 417.0411,-176.2332 422.5645,-173.9444"/>
</g>
<!-- 00110&#45;&#45;00111 -->
<g id="edge26" class="edge">
<title>00110&#45;&#45;00111</title>
<path fill="none" stroke="#000000" d="M256.4739,-222.3568C250.9561,-220.0492 245.088,-217.79 239.4971,-216 168.013,-193.1132 145.9812,-202.8868 74.4971,-180 68.9062,-178.21 63.0381,-175.9508 57.5203,-173.6432"/>
</g>
<!-- 01110 -->
<g id="node15" class="node">
<title>01110</title>
<ellipse fill="#000000" stroke="#000000" cx="281.4971" cy="-162" rx="32.4942" ry="18"/>
<text text-anchor="middle" x="281.4971" y="-158.3" font-family="Times,serif" font-size="14.00" fill="#ffffff">01110</text>
</g>
<!-- 00110&#45;&#45;01110 -->
<g id="edge25" class="edge">
<title>00110&#45;&#45;01110</title>
<path fill="none" stroke="#000000" d="M281.4971,-215.8314C281.4971,-205 281.4971,-191.2876 281.4971,-180.4133"/>
</g>
<!-- 10110 -->
<g id="node23" class="node">
<title>10110</title>
<ellipse fill="#000000" stroke="#000000" cx="613.4971" cy="-162" rx="32.4942" ry="18"/>
<text text-anchor="middle" x="613.4971" y="-158.3" font-family="Times,serif" font-size="14.00" fill="#ffffff">10110</text>
</g>
<!-- 00110&#45;&#45;10110 -->
<g id="edge24" class="edge">
<title>00110&#45;&#45;10110</title>
<path fill="none" stroke="#000000" d="M306.4297,-222.0556C311.9532,-219.7668 317.8464,-217.5914 323.4971,-216 430.704,-185.8069 464.2902,-210.1931 571.4971,-180 577.1478,-178.4086 583.0411,-176.2332 588.5645,-173.9444"/>
</g>
<!-- 01111 -->
<g id="node16" class="node">
<title>01111</title>
<ellipse fill="#00007f" stroke="#00007f" cx="198.4971" cy="-90" rx="32.4942" ry="18"/>
<text text-anchor="middle" x="198.4971" y="-86.3" font-family="Times,serif" font-size="14.00" fill="#ffffff">01111</text>
</g>
<!-- 00111&#45;&#45;01111 -->
<g id="edge28" class="edge">
<title>00111&#45;&#45;01111</title>
<path fill="none" stroke="#000000" d="M58.4346,-150.75C89.6204,-137.2236 141.6373,-114.6621 172.7418,-101.171"/>
</g>
<!-- 10111 -->
<g id="node24" class="node">
<title>10111</title>
<ellipse fill="#00007f" stroke="#00007f" cx="364.4971" cy="-90" rx="32.4942" ry="18"/>
<text text-anchor="middle" x="364.4971" y="-86.3" font-family="Times,serif" font-size="14.00" fill="#ffffff">10111</text>
</g>
<!-- 00111&#45;&#45;10111 -->
<g id="edge27" class="edge">
<title>00111&#45;&#45;10111</title>
<path fill="none" stroke="#000000" d="M57.4796,-150.2263C63,-147.9268 68.8794,-145.7039 74.4971,-144 122.7699,-129.3582 268.4796,-105.2734 333.0786,-94.9495"/>
</g>
<!-- 01000&#45;&#45;01001 -->
<g id="edge32" class="edge">
<title>01000&#45;&#45;01001</title>
<path fill="none" stroke="#000000" d="M422.4739,-294.3568C416.9561,-292.0492 411.088,-289.79 405.4971,-288 334.013,-265.1132 311.9812,-274.8868 240.4971,-252 234.9062,-250.21 229.0381,-247.9508 223.5203,-245.6432"/>
</g>
<!-- 01000&#45;&#45;01010 -->
<g id="edge31" class="edge">
<title>01000&#45;&#45;01010</title>
<path fill="none" stroke="#000000" d="M429.895,-290.7307C415.8096,-278.512 396.1526,-261.4602 382.0739,-249.2473"/>
</g>
<!-- 01000&#45;&#45;01100 -->
<g id="edge30" class="edge">
<title>01000&#45;&#45;01100</title>
<path fill="none" stroke="#000000" d="M447.4971,-287.8314C447.4971,-277 447.4971,-263.2876 447.4971,-252.4133"/>
</g>
<!-- 11000 -->
<g id="node25" class="node">
<title>11000</title>
<ellipse fill="#550000" stroke="#550000" cx="779.4971" cy="-234" rx="32.4942" ry="18"/>
<text text-anchor="middle" x="779.4971" y="-230.3" font-family="Times,serif" font-size="14.00" fill="#ffffff">11000</text>
</g>
<!-- 01000&#45;&#45;11000 -->
<g id="edge29" class="edge">
<title>01000&#45;&#45;11000</title>
<path fill="none" stroke="#000000" d="M478.9157,-301.0505C543.5147,-290.7266 689.2244,-266.6418 737.4971,-252 743.1149,-250.2961 748.9943,-248.0732 754.5146,-245.7737"/>
</g>
<!-- 01001&#45;&#45;01011 -->
<g id="edge35" class="edge">
<title>01001&#45;&#45;01011</title>
<path fill="none" stroke="#000000" d="M180.895,-218.7307C166.8096,-206.512 147.1526,-189.4602 133.0739,-177.2473"/>
</g>
<!-- 01001&#45;&#45;01101 -->
<g id="edge34" class="edge">
<title>01001&#45;&#45;01101</title>
<path fill="none" stroke="#000000" d="M198.4971,-215.8314C198.4971,-205 198.4971,-191.2876 198.4971,-180.4133"/>
</g>
<!-- 11001 -->
<g id="node26" class="node">
<title>11001</title>
<ellipse fill="#000000" stroke="#000000" cx="530.4971" cy="-162" rx="32.4942" ry="18"/>
<text text-anchor="middle" x="530.4971" y="-158.3" font-family="Times,serif" font-size="14.00" fill="#ffffff">11001</text>
</g>
<!-- 01001&#45;&#45;11001 -->
<g id="edge33" class="edge">
<title>01001&#45;&#45;11001</title>
<path fill="none" stroke="#000000" d="M223.4297,-222.0556C228.9532,-219.7668 234.8464,-217.5914 240.4971,-216 347.704,-185.8069 381.2902,-210.1931 488.4971,-180 494.1478,-178.4086 500.0411,-176.2332 505.5645,-173.9444"/>
</g>
<!-- 01010&#45;&#45;01011 -->
<g id="edge38" class="edge">
<title>01010&#45;&#45;01011</title>
<path fill="none" stroke="#000000" d="M339.4739,-222.3568C333.9561,-220.0492 328.088,-217.79 322.4971,-216 251.013,-193.1132 228.9812,-202.8868 157.4971,-180 151.9062,-178.21 146.0381,-175.9508 140.5203,-173.6432"/>
</g>
<!-- 01010&#45;&#45;01110 -->
<g id="edge37" class="edge">
<title>01010&#45;&#45;01110</title>
<path fill="none" stroke="#000000" d="M346.895,-218.7307C332.8096,-206.512 313.1526,-189.4602 299.0739,-177.2473"/>
</g>
<!-- 11010 -->
<g id="node27" class="node">
<title>11010</title>
<ellipse fill="#000000" stroke="#000000" cx="696.4971" cy="-162" rx="32.4942" ry="18"/>
<text text-anchor="middle" x="696.4971" y="-158.3" font-family="Times,serif" font-size="14.00" fill="#ffffff">11010</text>
</g>
<!-- 01010&#45;&#45;11010 -->
<g id="edge36" class="edge">
<title>01010&#45;&#45;11010</title>
<path fill="none" stroke="#000000" d="M389.4297,-222.0556C394.9532,-219.7668 400.8464,-217.5914 406.4971,-216 513.704,-185.8069 547.2902,-210.1931 654.4971,-180 660.1478,-178.4086 666.0411,-176.2332 671.5645,-173.9444"/>
</g>
<!-- 01011&#45;&#45;01111 -->
<g id="edge40" class="edge">
<title>01011&#45;&#45;01111</title>
<path fill="none" stroke="#000000" d="M133.0993,-146.7307C147.1847,-134.512 166.8416,-117.4602 180.9203,-105.2473"/>
</g>
<!-- 11011 -->
<g id="node28" class="node">
<title>11011</title>
<ellipse fill="#00007f" stroke="#00007f" cx="447.4971" cy="-90" rx="32.4942" ry="18"/>
<text text-anchor="middle" x="447.4971" y="-86.3" font-family="Times,serif" font-size="14.00" fill="#ffffff">11011</text>
</g>
<!-- 01011&#45;&#45;11011 -->
<g id="edge39" class="edge">
<title>01011&#45;&#45;11011</title>
<path fill="none" stroke="#000000" d="M140.4297,-150.0556C145.9532,-147.7668 151.8464,-145.5914 157.4971,-144 264.704,-113.8069 298.2902,-138.1931 405.4971,-108 411.1478,-106.4086 417.0411,-104.2332 422.5645,-101.9444"/>
</g>
<!-- 01100&#45;&#45;01101 -->
<g id="edge43" class="edge">
<title>01100&#45;&#45;01101</title>
<path fill="none" stroke="#000000" d="M422.4739,-222.3568C416.9561,-220.0492 411.088,-217.79 405.4971,-216 334.013,-193.1132 311.9812,-202.8868 240.4971,-180 234.9062,-178.21 229.0381,-175.9508 223.5203,-173.6432"/>
</g>
<!-- 01100&#45;&#45;01110 -->
<g id="edge42" class="edge">
<title>01100&#45;&#45;01110</title>
<path fill="none" stroke="#000000" d="M421.5596,-222.75C390.3738,-209.2236 338.3569,-186.6621 307.2525,-173.171"/>
</g>
<!-- 11100 -->
<g id="node29" class="node">
<title>11100</title>
<ellipse fill="#000000" stroke="#000000" cx="779.4971" cy="-162" rx="32.4942" ry="18"/>
<text text-anchor="middle" x="779.4971" y="-158.3" font-family="Times,serif" font-size="14.00" fill="#ffffff">11100</text>
</g>
<!-- 01100&#45;&#45;11100 -->
<g id="edge41" class="edge">
<title>01100&#45;&#45;11100</title>
<path fill="none" stroke="#000000" d="M472.4297,-222.0556C477.9532,-219.7668 483.8464,-217.5914 489.4971,-216 596.704,-185.8069 630.2902,-210.1931 737.4971,-180 743.1478,-178.4086 749.0411,-176.2332 754.5645,-173.9444"/>
</g>
<!-- 01101&#45;&#45;01111 -->
<g id="edge45" class="edge">
<title>01101&#45;&#45;01111</title>
<path fill="none" stroke="#000000" d="M198.4971,-143.8314C198.4971,-133 198.4971,-119.2876 198.4971,-108.4133"/>
</g>
<!-- 11101 -->
<g id="node30" class="node">
<title>11101</title>
<ellipse fill="#00007f" stroke="#00007f" cx="530.4971" cy="-90" rx="32.4942" ry="18"/>
<text text-anchor="middle" x="530.4971" y="-86.3" font-family="Times,serif" font-size="14.00" fill="#ffffff">11101</text>
</g>
<!-- 01101&#45;&#45;11101 -->
<g id="edge44" class="edge">
<title>01101&#45;&#45;11101</title>
<path fill="none" stroke="#000000" d="M223.4297,-150.0556C228.9532,-147.7668 234.8464,-145.5914 240.4971,-144 347.704,-113.8069 381.2902,-138.1931 488.4971,-108 494.1478,-106.4086 500.0411,-104.2332 505.5645,-101.9444"/>
</g>
<!-- 01110&#45;&#45;01111 -->
<g id="edge47" class="edge">
<title>01110&#45;&#45;01111</title>
<path fill="none" stroke="#000000" d="M263.895,-146.7307C249.8096,-134.512 230.1526,-117.4602 216.0739,-105.2473"/>
</g>
<!-- 11110 -->
<g id="node31" class="node">
<title>11110</title>
<ellipse fill="#00007f" stroke="#00007f" cx="613.4971" cy="-90" rx="32.4942" ry="18"/>
<text text-anchor="middle" x="613.4971" y="-86.3" font-family="Times,serif" font-size="14.00" fill="#ffffff">11110</text>
</g>
<!-- 01110&#45;&#45;11110 -->
<g id="edge46" class="edge">
<title>01110&#45;&#45;11110</title>
<path fill="none" stroke="#000000" d="M306.4297,-150.0556C311.9532,-147.7668 317.8464,-145.5914 323.4971,-144 430.704,-113.8069 464.2902,-138.1931 571.4971,-108 577.1478,-106.4086 583.0411,-104.2332 588.5645,-101.9444"/>
</g>
<!-- 11111 -->
<g id="node32" class="node">
<title>11111</title>
<ellipse fill="#0000ff" stroke="#0000ff" cx="447.4971" cy="-18" rx="32.4942" ry="18"/>
<text text-anchor="middle" x="447.4971" y="-14.3" font-family="Times,serif" font-size="14.00" fill="#ffffff">11111</text>
</g>
<!-- 01111&#45;&#45;11111 -->
<g id="edge48" class="edge">
<title>01111&#45;&#45;11111</title>
<path fill="none" stroke="#000000" d="M227.5479,-81.5998C275.5276,-67.7261 370.7735,-40.1851 418.6314,-26.3467"/>
</g>
<!-- 10000&#45;&#45;10001 -->
<g id="edge52" class="edge">
<title>10000&#45;&#45;10001</title>
<path fill="none" stroke="#000000" d="M595.895,-290.7307C581.8096,-278.512 562.1526,-261.4602 548.0739,-249.2473"/>
</g>
<!-- 10000&#45;&#45;10010 -->
<g id="edge51" class="edge">
<title>10000&#45;&#45;10010</title>
<path fill="none" stroke="#000000" d="M613.4971,-287.8314C613.4971,-277 613.4971,-263.2876 613.4971,-252.4133"/>
</g>
<!-- 10000&#45;&#45;10100 -->
<g id="edge50" class="edge">
<title>10000&#45;&#45;10100</title>
<path fill="none" stroke="#000000" d="M631.0993,-290.7307C645.1847,-278.512 664.8416,-261.4602 678.9203,-249.2473"/>
</g>
<!-- 10000&#45;&#45;11000 -->
<g id="edge49" class="edge">
<title>10000&#45;&#45;11000</title>
<path fill="none" stroke="#000000" d="M639.4346,-294.75C670.6204,-281.2236 722.6373,-258.6621 753.7418,-245.171"/>
</g>
<!-- 10001&#45;&#45;10011 -->
<g id="edge55" class="edge">
<title>10001&#45;&#45;10011</title>
<path fill="none" stroke="#000000" d="M504.5596,-222.75C473.3738,-209.2236 421.3569,-186.6621 390.2525,-173.171"/>
</g>
<!-- 10001&#45;&#45;10101 -->
<g id="edge54" class="edge">
<title>10001&#45;&#45;10101</title>
<path fill="none" stroke="#000000" d="M512.895,-218.7307C498.8096,-206.512 479.1526,-189.4602 465.0739,-177.2473"/>
</g>
<!-- 10001&#45;&#45;11001 -->
<g id="edge53" class="edge">
<title>10001&#45;&#45;11001</title>
<path fill="none" stroke="#000000" d="M530.4971,-215.8314C530.4971,-205 530.4971,-191.2876 530.4971,-180.4133"/>
</g>
<!-- 10010&#45;&#45;10011 -->
<g id="edge58" class="edge">
<title>10010&#45;&#45;10011</title>
<path fill="none" stroke="#000000" d="M588.4739,-222.3568C582.9561,-220.0492 577.088,-217.79 571.4971,-216 500.013,-193.1132 477.9812,-202.8868 406.4971,-180 400.9062,-178.21 395.0381,-175.9508 389.5203,-173.6432"/>
</g>
<!-- 10010&#45;&#45;10110 -->
<g id="edge57" class="edge">
<title>10010&#45;&#45;10110</title>
<path fill="none" stroke="#000000" d="M613.4971,-215.8314C613.4971,-205 613.4971,-191.2876 613.4971,-180.4133"/>
</g>
<!-- 10010&#45;&#45;11010 -->
<g id="edge56" class="edge">
<title>10010&#45;&#45;11010</title>
<path fill="none" stroke="#000000" d="M631.0993,-218.7307C645.1847,-206.512 664.8416,-189.4602 678.9203,-177.2473"/>
</g>
<!-- 10011&#45;&#45;10111 -->
<g id="edge60" class="edge">
<title>10011&#45;&#45;10111</title>
<path fill="none" stroke="#000000" d="M364.4971,-143.8314C364.4971,-133 364.4971,-119.2876 364.4971,-108.4133"/>
</g>
<!-- 10011&#45;&#45;11011 -->
<g id="edge59" class="edge">
<title>10011&#45;&#45;11011</title>
<path fill="none" stroke="#000000" d="M382.0993,-146.7307C396.1847,-134.512 415.8416,-117.4602 429.9203,-105.2473"/>
</g>
<!-- 10100&#45;&#45;10101 -->
<g id="edge63" class="edge">
<title>10100&#45;&#45;10101</title>
<path fill="none" stroke="#000000" d="M671.4739,-222.3568C665.9561,-220.0492 660.088,-217.79 654.4971,-216 583.013,-193.1132 560.9812,-202.8868 489.4971,-180 483.9062,-178.21 478.0381,-175.9508 472.5203,-173.6432"/>
</g>
<!-- 10100&#45;&#45;10110 -->
<g id="edge62" class="edge">
<title>10100&#45;&#45;10110</title>
<path fill="none" stroke="#000000" d="M678.895,-218.7307C664.8096,-206.512 645.1526,-189.4602 631.0739,-177.2473"/>
</g>
<!-- 10100&#45;&#45;11100 -->
<g id="edge61" class="edge">
<title>10100&#45;&#45;11100</title>
<path fill="none" stroke="#000000" d="M714.0993,-218.7307C728.1847,-206.512 747.8416,-189.4602 761.9203,-177.2473"/>
</g>
<!-- 10101&#45;&#45;10111 -->
<g id="edge65" class="edge">
<title>10101&#45;&#45;10111</title>
<path fill="none" stroke="#000000" d="M429.895,-146.7307C415.8096,-134.512 396.1526,-117.4602 382.0739,-105.2473"/>
</g>
<!-- 10101&#45;&#45;11101 -->
<g id="edge64" class="edge">
<title>10101&#45;&#45;11101</title>
<path fill="none" stroke="#000000" d="M465.0993,-146.7307C479.1847,-134.512 498.8416,-117.4602 512.9203,-105.2473"/>
</g>
<!-- 10110&#45;&#45;10111 -->
<g id="edge67" class="edge">
<title>10110&#45;&#45;10111</title>
<path fill="none" stroke="#000000" d="M588.4739,-150.3568C582.9561,-148.0492 577.088,-145.79 571.4971,-144 500.013,-121.1132 477.9812,-130.8868 406.4971,-108 400.9062,-106.21 395.0381,-103.9508 389.5203,-101.6432"/>
</g>
<!-- 10110&#45;&#45;11110 -->
<g id="edge66" class="edge">
<title>10110&#45;&#45;11110</title>
<path fill="none" stroke="#000000" d="M613.4971,-143.8314C613.4971,-133 613.4971,-119.2876 613.4971,-108.4133"/>
</g>
<!-- 10111&#45;&#45;11111 -->
<g id="edge68" class="edge">
<title>10111&#45;&#45;11111</title>
<path fill="none" stroke="#000000" d="M382.0993,-74.7307C396.1847,-62.512 415.8416,-45.4602 429.9203,-33.2473"/>
</g>
<!-- 11000&#45;&#45;11001 -->
<g id="edge71" class="edge">
<title>11000&#45;&#45;11001</title>
<path fill="none" stroke="#000000" d="M754.4739,-222.3568C748.9561,-220.0492 743.088,-217.79 737.4971,-216 666.013,-193.1132 643.9812,-202.8868 572.4971,-180 566.9062,-178.21 561.0381,-175.9508 555.5203,-173.6432"/>
</g>
<!-- 11000&#45;&#45;11010 -->
<g id="edge70" class="edge">
<title>11000&#45;&#45;11010</title>
<path fill="none" stroke="#000000" d="M761.895,-218.7307C747.8096,-206.512 728.1526,-189.4602 714.0739,-177.2473"/>
</g>
<!-- 11000&#45;&#45;11100 -->
<g id="edge69" class="edge">
<title>11000&#45;&#45;11100</title>
<path fill="none" stroke="#000000" d="M779.4971,-215.8314C779.4971,-205 779.4971,-191.2876 779.4971,-180.4133"/>
</g>
<!-- 11001&#45;&#45;11011 -->
<g id="edge73" class="edge">
<title>11001&#45;&#45;11011</title>
<path fill="none" stroke="#000000" d="M512.895,-146.7307C498.8096,-134.512 479.1526,-117.4602 465.0739,-105.2473"/>
</g>
<!-- 11001&#45;&#45;11101 -->
<g id="edge72" class="edge">
<title>11001&#45;&#45;11101</title>
<path fill="none" stroke="#000000" d="M530.4971,-143.8314C530.4971,-133 530.4971,-119.2876 530.4971,-108.4133"/>
</g>
<!-- 11010&#45;&#45;11011 -->
<g id="edge75" class="edge">
<title>11010&#45;&#45;11011</title>
<path fill="none" stroke="#000000" d="M671.4739,-150.3568C665.9561,-148.0492 660.088,-145.79 654.4971,-144 583.013,-121.1132 560.9812,-130.8868 489.4971,-108 483.9062,-106.21 478.0381,-103.9508 472.5203,-101.6432"/>
</g>
<!-- 11010&#45;&#45;11110 -->
<g id="edge74" class="edge">
<title>11010&#45;&#45;11110</title>
<path fill="none" stroke="#000000" d="M678.895,-146.7307C664.8096,-134.512 645.1526,-117.4602 631.0739,-105.2473"/>
</g>
<!-- 11011&#45;&#45;11111 -->
<g id="edge76" class="edge">
<title>11011&#45;&#45;11111</title>
<path fill="none" stroke="#000000" d="M447.4971,-71.8314C447.4971,-61 447.4971,-47.2876 447.4971,-36.4133"/>
</g>
<!-- 11100&#45;&#45;11101 -->
<g id="edge78" class="edge">
<title>11100&#45;&#45;11101</title>
<path fill="none" stroke="#000000" d="M754.4739,-150.3568C748.9561,-148.0492 743.088,-145.79 737.4971,-144 666.013,-121.1132 643.9812,-130.8868 572.4971,-108 566.9062,-106.21 561.0381,-103.9508 555.5203,-101.6432"/>
</g>
<!-- 11100&#45;&#45;11110 -->
<g id="edge77" class="edge">
<title>11100&#45;&#45;11110</title>
<path fill="none" stroke="#000000" d="M753.5596,-150.75C722.3738,-137.2236 670.3569,-114.6621 639.2525,-101.171"/>
</g>
<!-- 11101&#45;&#45;11111 -->
<g id="edge79" class="edge">
<title>11101&#45;&#45;11111</title>
<path fill="none" stroke="#000000" d="M512.895,-74.7307C498.8096,-62.512 479.1526,-45.4602 465.0739,-33.2473"/>
</g>
<!-- 11110&#45;&#45;11111 -->
<g id="edge80" class="edge">
<title>11110&#45;&#45;11111</title>
<path fill="none" stroke="#000000" d="M587.5596,-78.75C556.3738,-65.2236 504.3569,-42.6621 473.2525,-29.171"/>
</g>
</g>
</svg>
